# xmcd CD database file
#
# Track frame offsets:
#	150
#	20295
#	37725
#	67050
#	87250
#	107505
#	144315
#	164225
#	208452
#
# Disc length: 3640 seconds
#
# Revision: 1
# Processed by: cddbd v1.5.2PL0 Copyright (c) Steve Scherf et al.
# Submitted via: CDex 1.70beta2
#
DISCID=7b0e3609
DTITLE=Blues Project - Reunion in Central Park
DYEAR=1990
DGENRE=Blues
TTITLE0=the original blues project - louisiana blues
TTITLE1=the original blues project - steves song
TTITLE2=the original blues project - i can't keep from cryin' sometimes
TTITLE3=the original blues project - you can't catch me
TTITLE4=the original blues project - fly away
TTITLE5=the original blues project - caress me baby
TTITLE6=the original blues project - catch the wind
TTITLE7=the original blues project - wake me, shake me
TTITLE8=the original blues project - two trains running
EXTD=YEAR: 1990
EXTT0=
EXTT1=
EXTT2=
EXTT3=
EXTT4=
EXTT5=
EXTT6=
EXTT7=
EXTT8=
PLAYORDER=
